<?xml version="1.0" standalone="no"?>
<!DOCTYPE svg PUBLIC "-//W3C//DTD SVG 20010904//EN"
 "http://www.w3.org/TR/2001/REC-SVG-20010904/DTD/svg10.dtd">
<svg version="1.0" xmlns="http://www.w3.org/2000/svg"
 width="224.000000pt" height="225.000000pt" viewBox="0 0 224.000000 225.000000"
 preserveAspectRatio="xMidYMid meet">

<g transform="translate(0.000000,225.000000) scale(0.100000,-0.100000)"
fill="#000000" stroke="none">
<path d="M0 1125 l0 -1125 1120 0 1120 0 0 1125 0 1125 -1120 0 -1120 0 0
-1125z m899 624 c58 -106 100 -194 95 -199 -13 -12 -128 -45 -206 -60 l-68
-12 6 -117 c3 -64 10 -143 15 -176 l9 -60 -74 -135 c-41 -74 -90 -164 -110
-200 -20 -36 -52 -95 -71 -132 l-35 -68 -211 0 -210 0 29 53 c17 28 152 275
302 547 150 272 304 552 342 623 39 70 73 127 77 127 3 0 53 -86 110 -191z
m653 11 c47 -85 209 -381 362 -657 152 -276 276 -504 276 -507 0 -4 -89 -6
-199 -6 l-199 0 -142 247 c-79 137 -145 251 -147 256 -3 4 0 49 6 100 6 50 12
135 15 189 l4 96 -66 12 c-88 16 -222 58 -222 70 0 5 46 92 102 194 79 143
105 183 114 173 7 -6 50 -82 96 -167z m-662 -966 c34 -54 99 -121 170 -176
l35 -27 -194 -1 c-180 0 -193 1 -187 18 13 34 129 242 135 242 3 -1 22 -26 41
-56z m575 -75 c37 -66 65 -123 62 -125 -2 -2 -89 -3 -193 -2 -182 3 -188 4
-159 20 42 23 159 139 190 188 14 22 27 40 29 40 3 0 35 -54 71 -121z m-978
-225 c43 -27 42 -91 -2 -120 -43 -28 -143 -16 -167 20 -10 15 -10 68 1 84 12
20 82 41 116 35 17 -3 40 -12 52 -19z m-367 -37 c14 -26 27 -47 30 -47 3 0 16
21 30 47 37 72 55 68 79 -15 26 -84 26 -82 1 -82 -11 0 -20 6 -20 13 0 6 -5
30 -11 51 l-11 39 -26 -49 c-36 -66 -53 -67 -82 -4 -26 55 -35 52 -45 -12 -5
-29 -12 -38 -26 -38 -10 0 -19 3 -19 6 0 6 27 104 36 132 8 26 39 6 64 -41z
m491 3 c17 -27 34 -50 38 -50 5 0 22 23 39 50 22 35 38 50 53 50 21 0 21 0 2
-29 -48 -77 -84 -121 -98 -121 -12 0 -105 128 -105 145 0 3 9 5 20 5 13 0 31
-17 51 -50z m229 -25 c0 -60 -3 -75 -15 -75 -12 0 -15 15 -15 75 0 60 3 75 15
75 12 0 15 -15 15 -75z m204 60 c-5 -11 -21 -15 -60 -15 -41 0 -54 -4 -54 -15
0 -12 13 -15 56 -15 73 0 70 -24 -4 -28 -39 -2 -52 -7 -52 -18 0 -13 11 -15
60 -12 33 1 60 2 60 1 0 -1 -3 -8 -6 -17 -5 -13 -22 -16 -80 -16 l-74 0 0 75
0 75 80 0 c66 0 78 -2 74 -15z m121 -35 c16 -27 33 -50 37 -50 4 0 23 22 40
50 24 35 40 50 56 50 21 0 19 -5 -28 -75 -28 -41 -57 -75 -66 -75 -13 0 -49
44 -97 121 l-19 29 24 0 c18 0 31 -12 53 -50z m345 35 c-8 -10 -30 -15 -61
-15 -37 0 -49 -4 -49 -15 0 -12 13 -15 56 -15 49 0 55 -2 44 -15 -8 -9 -30
-15 -56 -15 -32 0 -44 -4 -44 -15 0 -12 13 -15 61 -15 54 0 60 -2 49 -15 -9
-11 -32 -15 -81 -15 l-69 0 0 75 0 75 81 0 c71 0 80 -2 69 -15z m228 -1 c27
-19 28 -49 2 -71 -20 -17 -20 -17 2 -40 l21 -23 -26 0 c-16 0 -30 8 -37 20 -8
15 -21 20 -55 20 -38 0 -45 -3 -45 -20 0 -14 -7 -20 -21 -20 -17 0 -20 5 -17
38 l3 37 78 3 c68 2 78 5 75 20 -3 14 -17 18 -76 20 -63 2 -72 5 -62 17 17 21
128 20 158 -1z m236 1 c-5 -11 -22 -15 -70 -15 -50 0 -64 -3 -64 -15 0 -12 14
-15 63 -15 68 0 87 -10 87 -47 0 -32 -28 -43 -116 -43 -67 0 -75 2 -64 15 9
10 32 15 76 15 57 0 86 11 70 27 -3 4 -29 6 -57 4 -79 -3 -122 34 -83 73 22
23 166 23 158 1z m214 3 c-3 -8 -28 -15 -58 -18 -75 -7 -79 -30 -5 -30 75 0
71 -24 -4 -28 -71 -4 -63 -26 12 -30 44 -2 55 -6 50 -17 -4 -11 -24 -15 -79
-15 l-74 0 0 75 0 75 81 0 c60 0 80 -3 77 -12z"/>
<path d="M363 473 c-19 -7 -16 -70 3 -77 27 -10 89 -7 102 6 17 17 15 65 -4
72 -18 7 -83 7 -101 -1z"/>
</g>
</svg>
